<svg xmlns="http://www.w3.org/2000/svg" version="1.1"
     xmlns:xlink="http://www.w3.org/1999/xlink" xmlns:svgjs="http://svgjs.dev/svgjs"
     width="1920" height="1080" preserveAspectRatio="none" viewBox="0 0 1920 1080">
  <style>
    @keyframes pulse {
    0% { transform: scale(1); }
    50% { transform: scale(1.2); }
    100% { transform: scale(1); }
    }
    path {
    animation: pulse 30s infinite;
    transform-origin: center;
    }
  </style>
  <g mask="url(&quot;#SvgjsMask1062&quot;)" fill="none">
    <path
      d="M10.51 -10.9L77.2 27.6L77.2 104.6L10.51 143.1L-56.18 104.6L-56.18 27.6zM77.2 104.6L143.88 143.1L143.88 220.1L77.2 258.6L10.51 220.1L10.51 143.1zM10.51 220.1L77.2 258.6L77.2 335.6L10.51 374.1L-56.18 335.6L-56.18 258.6zM77.2 335.6L143.88 374.1L143.88 451.1L77.2 489.6L10.51 451.1L10.51 374.1zM10.51 682.1L77.2 720.6L77.2 797.6L10.51 836.1L-56.18 797.6L-56.18 720.6zM143.88 682.1L210.57 720.6L210.57 797.6L143.88 836.1L77.2 797.6L77.2 720.6zM343.94 104.6L410.63 143.1L410.63 220.1L343.94 258.6L277.25 220.1L277.25 143.1zM277.25 220.1L343.94 258.6L343.94 335.6L277.25 374.1L210.57 335.6L210.57 258.6zM343.94 335.6L410.63 374.1L410.63 451.1L343.94 489.6L277.25 451.1L277.25 374.1zM343.94 566.6L410.63 605.1L410.63 682.1L343.94 720.6L277.25 682.1L277.25 605.1zM277.25 682.1L343.94 720.6L343.94 797.6L277.25 836.1L210.57 797.6L210.57 720.6zM343.94 1028.6L410.63 1067.1L410.63 1144.1L343.94 1182.6L277.25 1144.1L277.25 1067.1zM410.63 -10.9L477.31 27.6L477.31 104.6L410.63 143.1L343.94 104.6L343.94 27.6zM477.31 104.6L544 143.1L544 220.1L477.31 258.6L410.63 220.1L410.63 143.1zM477.31 335.6L544 374.1L544 451.1L477.31 489.6L410.63 451.1L410.63 374.1zM410.63 451.1L477.31 489.6L477.31 566.6L410.63 605.1L343.94 566.6L343.94 489.6zM410.63 682.1L477.31 720.6L477.31 797.6L410.63 836.1L343.94 797.6L343.94 720.6zM410.63 913.1L477.31 951.6L477.31 1028.6L410.63 1067.1L343.94 1028.6L343.94 951.6zM610.68 104.6L677.37 143.1L677.37 220.1L610.68 258.6L544 220.1L544 143.1zM544 220.1L610.68 258.6L610.68 335.6L544 374.1L477.31 335.6L477.31 258.6zM610.68 335.6L677.37 374.1L677.37 451.1L610.68 489.6L544 451.1L544 374.1zM610.68 566.6L677.37 605.1L677.37 682.1L610.68 720.6L544 682.1L544 605.1zM610.68 1028.6L677.37 1067.1L677.37 1144.1L610.68 1182.6L544 1144.1L544 1067.1zM677.37 -10.9L744.05 27.6L744.05 104.6L677.37 143.1L610.68 104.6L610.68 27.6zM744.05 104.6L810.74 143.1L810.74 220.1L744.05 258.6L677.37 220.1L677.37 143.1zM677.37 220.1L744.05 258.6L744.05 335.6L677.37 374.1L610.68 335.6L610.68 258.6zM744.05 335.6L810.74 374.1L810.74 451.1L744.05 489.6L677.37 451.1L677.37 374.1zM677.37 451.1L744.05 489.6L744.05 566.6L677.37 605.1L610.68 566.6L610.68 489.6zM744.05 566.6L810.74 605.1L810.74 682.1L744.05 720.6L677.37 682.1L677.37 605.1zM677.37 682.1L744.05 720.6L744.05 797.6L677.37 836.1L610.68 797.6L610.68 720.6zM744.05 797.6L810.74 836.1L810.74 913.1L744.05 951.6L677.37 913.1L677.37 836.1zM677.37 913.1L744.05 951.6L744.05 1028.6L677.37 1067.1L610.68 1028.6L610.68 951.6zM744.05 1028.6L810.74 1067.1L810.74 1144.1L744.05 1182.6L677.37 1144.1L677.37 1067.1zM877.43 104.6L944.11 143.1L944.11 220.1L877.43 258.6L810.74 220.1L810.74 143.1zM810.74 220.1L877.43 258.6L877.43 335.6L810.74 374.1L744.05 335.6L744.05 258.6zM877.43 335.6L944.11 374.1L944.11 451.1L877.43 489.6L810.74 451.1L810.74 374.1zM877.43 1028.6L944.11 1067.1L944.11 1144.1L877.43 1182.6L810.74 1144.1L810.74 1067.1zM1010.8 104.6L1077.48 143.1L1077.48 220.1L1010.8 258.6L944.11 220.1L944.11 143.1zM944.11 220.1L1010.8 258.6L1010.8 335.6L944.11 374.1L877.43 335.6L877.43 258.6zM944.11 913.1L1010.8 951.6L1010.8 1028.6L944.11 1067.1L877.43 1028.6L877.43 951.6zM1010.8 1028.6L1077.48 1067.1L1077.48 1144.1L1010.8 1182.6L944.11 1144.1L944.11 1067.1zM1077.48 220.1L1144.17 258.6L1144.17 335.6L1077.48 374.1L1010.8 335.6L1010.8 258.6zM1077.48 451.1L1144.17 489.6L1144.17 566.6L1077.48 605.1L1010.8 566.6L1010.8 489.6zM1144.17 566.6L1210.86 605.1L1210.86 682.1L1144.17 720.6L1077.48 682.1L1077.48 605.1zM1077.48 682.1L1144.17 720.6L1144.17 797.6L1077.48 836.1L1010.8 797.6L1010.8 720.6zM1144.17 797.6L1210.86 836.1L1210.86 913.1L1144.17 951.6L1077.48 913.1L1077.48 836.1zM1210.86 -10.9L1277.54 27.6L1277.54 104.6L1210.86 143.1L1144.17 104.6L1144.17 27.6zM1210.86 220.1L1277.54 258.6L1277.54 335.6L1210.86 374.1L1144.17 335.6L1144.17 258.6zM1210.86 913.1L1277.54 951.6L1277.54 1028.6L1210.86 1067.1L1144.17 1028.6L1144.17 951.6zM1277.54 1028.6L1344.23 1067.1L1344.23 1144.1L1277.54 1182.6L1210.86 1144.1L1210.86 1067.1zM1344.23 -10.9L1410.91 27.6L1410.91 104.6L1344.23 143.1L1277.54 104.6L1277.54 27.6zM1410.91 104.6L1477.6 143.1L1477.6 220.1L1410.91 258.6L1344.23 220.1L1344.23 143.1zM1344.23 220.1L1410.91 258.6L1410.91 335.6L1344.23 374.1L1277.54 335.6L1277.54 258.6zM1410.91 335.6L1477.6 374.1L1477.6 451.1L1410.91 489.6L1344.23 451.1L1344.23 374.1zM1410.91 566.6L1477.6 605.1L1477.6 682.1L1410.91 720.6L1344.23 682.1L1344.23 605.1zM1410.91 797.6L1477.6 836.1L1477.6 913.1L1410.91 951.6L1344.23 913.1L1344.23 836.1zM1544.28 335.6L1610.97 374.1L1610.97 451.1L1544.28 489.6L1477.6 451.1L1477.6 374.1zM1477.6 451.1L1544.28 489.6L1544.28 566.6L1477.6 605.1L1410.91 566.6L1410.91 489.6zM1477.6 913.1L1544.28 951.6L1544.28 1028.6L1477.6 1067.1L1410.91 1028.6L1410.91 951.6zM1544.28 1028.6L1610.97 1067.1L1610.97 1144.1L1544.28 1182.6L1477.6 1144.1L1477.6 1067.1zM1677.66 335.6L1744.34 374.1L1744.34 451.1L1677.66 489.6L1610.97 451.1L1610.97 374.1zM1610.97 451.1L1677.66 489.6L1677.66 566.6L1610.97 605.1L1544.28 566.6L1544.28 489.6zM1610.97 682.1L1677.66 720.6L1677.66 797.6L1610.97 836.1L1544.28 797.6L1544.28 720.6zM1744.34 220.1L1811.03 258.6L1811.03 335.6L1744.34 374.1L1677.66 335.6L1677.66 258.6zM1811.03 335.6L1877.71 374.1L1877.71 451.1L1811.03 489.6L1744.34 451.1L1744.34 374.1zM1744.34 451.1L1811.03 489.6L1811.03 566.6L1744.34 605.1L1677.66 566.6L1677.66 489.6zM1811.03 566.6L1877.71 605.1L1877.71 682.1L1811.03 720.6L1744.34 682.1L1744.34 605.1zM1811.03 797.6L1877.71 836.1L1877.71 913.1L1811.03 951.6L1744.34 913.1L1744.34 836.1zM1944.4 104.6L2011.09 143.1L2011.09 220.1L1944.4 258.6L1877.71 220.1L1877.71 143.1zM1877.71 451.1L1944.4 489.6L1944.4 566.6L1877.71 605.1L1811.03 566.6L1811.03 489.6zM1944.4 566.6L2011.09 605.1L2011.09 682.1L1944.4 720.6L1877.71 682.1L1877.71 605.1zM1877.71 682.1L1944.4 720.6L1944.4 797.6L1877.71 836.1L1811.03 797.6L1811.03 720.6zM1944.4 797.6L2011.09 836.1L2011.09 913.1L1944.4 951.6L1877.71 913.1L1877.71 836.1zM1877.71 913.1L1944.4 951.6L1944.4 1028.6L1877.71 1067.1L1811.03 1028.6L1811.03 951.6z"
      stroke="rgba(10, 72, 152, 0.10)" stroke-width="2"></path>
    <path
      d="M2.81 -10.9 a7.7 7.7 0 1 0 15.4 0 a7.7 7.7 0 1 0 -15.4 0zM69.5 27.6 a7.7 7.7 0 1 0 15.4 0 a7.7 7.7 0 1 0 -15.4 0zM69.5 104.6 a7.7 7.7 0 1 0 15.4 0 a7.7 7.7 0 1 0 -15.4 0zM2.81 143.1 a7.7 7.7 0 1 0 15.4 0 a7.7 7.7 0 1 0 -15.4 0zM-63.88 104.6 a7.7 7.7 0 1 0 15.4 0 a7.7 7.7 0 1 0 -15.4 0zM-63.88 27.6 a7.7 7.7 0 1 0 15.4 0 a7.7 7.7 0 1 0 -15.4 0zM136.18 143.1 a7.7 7.7 0 1 0 15.4 0 a7.7 7.7 0 1 0 -15.4 0zM136.18 220.1 a7.7 7.7 0 1 0 15.4 0 a7.7 7.7 0 1 0 -15.4 0zM69.5 258.6 a7.7 7.7 0 1 0 15.4 0 a7.7 7.7 0 1 0 -15.4 0zM2.81 220.1 a7.7 7.7 0 1 0 15.4 0 a7.7 7.7 0 1 0 -15.4 0zM69.5 335.6 a7.7 7.7 0 1 0 15.4 0 a7.7 7.7 0 1 0 -15.4 0zM2.81 374.1 a7.7 7.7 0 1 0 15.4 0 a7.7 7.7 0 1 0 -15.4 0zM-63.88 335.6 a7.7 7.7 0 1 0 15.4 0 a7.7 7.7 0 1 0 -15.4 0zM-63.88 258.6 a7.7 7.7 0 1 0 15.4 0 a7.7 7.7 0 1 0 -15.4 0zM136.18 374.1 a7.7 7.7 0 1 0 15.4 0 a7.7 7.7 0 1 0 -15.4 0zM136.18 451.1 a7.7 7.7 0 1 0 15.4 0 a7.7 7.7 0 1 0 -15.4 0zM69.5 489.6 a7.7 7.7 0 1 0 15.4 0 a7.7 7.7 0 1 0 -15.4 0zM2.81 451.1 a7.7 7.7 0 1 0 15.4 0 a7.7 7.7 0 1 0 -15.4 0zM2.81 682.1 a7.7 7.7 0 1 0 15.4 0 a7.7 7.7 0 1 0 -15.4 0zM69.5 720.6 a7.7 7.7 0 1 0 15.4 0 a7.7 7.7 0 1 0 -15.4 0zM69.5 797.6 a7.7 7.7 0 1 0 15.4 0 a7.7 7.7 0 1 0 -15.4 0zM2.81 836.1 a7.7 7.7 0 1 0 15.4 0 a7.7 7.7 0 1 0 -15.4 0zM-63.88 797.6 a7.7 7.7 0 1 0 15.4 0 a7.7 7.7 0 1 0 -15.4 0zM-63.88 720.6 a7.7 7.7 0 1 0 15.4 0 a7.7 7.7 0 1 0 -15.4 0zM136.18 682.1 a7.7 7.7 0 1 0 15.4 0 a7.7 7.7 0 1 0 -15.4 0zM202.87 720.6 a7.7 7.7 0 1 0 15.4 0 a7.7 7.7 0 1 0 -15.4 0zM202.87 797.6 a7.7 7.7 0 1 0 15.4 0 a7.7 7.7 0 1 0 -15.4 0zM136.18 836.1 a7.7 7.7 0 1 0 15.4 0 a7.7 7.7 0 1 0 -15.4 0zM336.24 104.6 a7.7 7.7 0 1 0 15.4 0 a7.7 7.7 0 1 0 -15.4 0zM402.93 143.1 a7.7 7.7 0 1 0 15.4 0 a7.7 7.7 0 1 0 -15.4 0zM402.93 220.1 a7.7 7.7 0 1 0 15.4 0 a7.7 7.7 0 1 0 -15.4 0zM336.24 258.6 a7.7 7.7 0 1 0 15.4 0 a7.7 7.7 0 1 0 -15.4 0zM269.55 220.1 a7.7 7.7 0 1 0 15.4 0 a7.7 7.7 0 1 0 -15.4 0zM269.55 143.1 a7.7 7.7 0 1 0 15.4 0 a7.7 7.7 0 1 0 -15.4 0zM336.24 335.6 a7.7 7.7 0 1 0 15.4 0 a7.7 7.7 0 1 0 -15.4 0zM269.55 374.1 a7.7 7.7 0 1 0 15.4 0 a7.7 7.7 0 1 0 -15.4 0zM202.87 335.6 a7.7 7.7 0 1 0 15.4 0 a7.7 7.7 0 1 0 -15.4 0zM202.87 258.6 a7.7 7.7 0 1 0 15.4 0 a7.7 7.7 0 1 0 -15.4 0zM402.93 374.1 a7.7 7.7 0 1 0 15.4 0 a7.7 7.7 0 1 0 -15.4 0zM402.93 451.1 a7.7 7.7 0 1 0 15.4 0 a7.7 7.7 0 1 0 -15.4 0zM336.24 489.6 a7.7 7.7 0 1 0 15.4 0 a7.7 7.7 0 1 0 -15.4 0zM269.55 451.1 a7.7 7.7 0 1 0 15.4 0 a7.7 7.7 0 1 0 -15.4 0zM336.24 566.6 a7.7 7.7 0 1 0 15.4 0 a7.7 7.7 0 1 0 -15.4 0zM402.93 605.1 a7.7 7.7 0 1 0 15.4 0 a7.7 7.7 0 1 0 -15.4 0zM402.93 682.1 a7.7 7.7 0 1 0 15.4 0 a7.7 7.7 0 1 0 -15.4 0zM336.24 720.6 a7.7 7.7 0 1 0 15.4 0 a7.7 7.7 0 1 0 -15.4 0zM269.55 682.1 a7.7 7.7 0 1 0 15.4 0 a7.7 7.7 0 1 0 -15.4 0zM269.55 605.1 a7.7 7.7 0 1 0 15.4 0 a7.7 7.7 0 1 0 -15.4 0zM336.24 797.6 a7.7 7.7 0 1 0 15.4 0 a7.7 7.7 0 1 0 -15.4 0zM269.55 836.1 a7.7 7.7 0 1 0 15.4 0 a7.7 7.7 0 1 0 -15.4 0zM336.24 1028.6 a7.7 7.7 0 1 0 15.4 0 a7.7 7.7 0 1 0 -15.4 0zM402.93 1067.1 a7.7 7.7 0 1 0 15.4 0 a7.7 7.7 0 1 0 -15.4 0zM402.93 1144.1 a7.7 7.7 0 1 0 15.4 0 a7.7 7.7 0 1 0 -15.4 0zM336.24 1182.6 a7.7 7.7 0 1 0 15.4 0 a7.7 7.7 0 1 0 -15.4 0zM269.55 1144.1 a7.7 7.7 0 1 0 15.4 0 a7.7 7.7 0 1 0 -15.4 0zM269.55 1067.1 a7.7 7.7 0 1 0 15.4 0 a7.7 7.7 0 1 0 -15.4 0zM402.93 -10.9 a7.7 7.7 0 1 0 15.4 0 a7.7 7.7 0 1 0 -15.4 0zM469.61 27.6 a7.7 7.7 0 1 0 15.4 0 a7.7 7.7 0 1 0 -15.4 0zM469.61 104.6 a7.7 7.7 0 1 0 15.4 0 a7.7 7.7 0 1 0 -15.4 0zM336.24 27.6 a7.7 7.7 0 1 0 15.4 0 a7.7 7.7 0 1 0 -15.4 0zM536.3 143.1 a7.7 7.7 0 1 0 15.4 0 a7.7 7.7 0 1 0 -15.4 0zM536.3 220.1 a7.7 7.7 0 1 0 15.4 0 a7.7 7.7 0 1 0 -15.4 0zM469.61 258.6 a7.7 7.7 0 1 0 15.4 0 a7.7 7.7 0 1 0 -15.4 0zM469.61 335.6 a7.7 7.7 0 1 0 15.4 0 a7.7 7.7 0 1 0 -15.4 0zM536.3 374.1 a7.7 7.7 0 1 0 15.4 0 a7.7 7.7 0 1 0 -15.4 0zM536.3 451.1 a7.7 7.7 0 1 0 15.4 0 a7.7 7.7 0 1 0 -15.4 0zM469.61 489.6 a7.7 7.7 0 1 0 15.4 0 a7.7 7.7 0 1 0 -15.4 0zM469.61 566.6 a7.7 7.7 0 1 0 15.4 0 a7.7 7.7 0 1 0 -15.4 0zM469.61 720.6 a7.7 7.7 0 1 0 15.4 0 a7.7 7.7 0 1 0 -15.4 0zM469.61 797.6 a7.7 7.7 0 1 0 15.4 0 a7.7 7.7 0 1 0 -15.4 0zM402.93 836.1 a7.7 7.7 0 1 0 15.4 0 a7.7 7.7 0 1 0 -15.4 0zM402.93 913.1 a7.7 7.7 0 1 0 15.4 0 a7.7 7.7 0 1 0 -15.4 0zM469.61 951.6 a7.7 7.7 0 1 0 15.4 0 a7.7 7.7 0 1 0 -15.4 0zM469.61 1028.6 a7.7 7.7 0 1 0 15.4 0 a7.7 7.7 0 1 0 -15.4 0zM336.24 951.6 a7.7 7.7 0 1 0 15.4 0 a7.7 7.7 0 1 0 -15.4 0zM602.98 104.6 a7.7 7.7 0 1 0 15.4 0 a7.7 7.7 0 1 0 -15.4 0zM669.67 143.1 a7.7 7.7 0 1 0 15.4 0 a7.7 7.7 0 1 0 -15.4 0zM669.67 220.1 a7.7 7.7 0 1 0 15.4 0 a7.7 7.7 0 1 0 -15.4 0zM602.98 258.6 a7.7 7.7 0 1 0 15.4 0 a7.7 7.7 0 1 0 -15.4 0zM602.98 335.6 a7.7 7.7 0 1 0 15.4 0 a7.7 7.7 0 1 0 -15.4 0zM669.67 374.1 a7.7 7.7 0 1 0 15.4 0 a7.7 7.7 0 1 0 -15.4 0zM669.67 451.1 a7.7 7.7 0 1 0 15.4 0 a7.7 7.7 0 1 0 -15.4 0zM602.98 489.6 a7.7 7.7 0 1 0 15.4 0 a7.7 7.7 0 1 0 -15.4 0zM602.98 566.6 a7.7 7.7 0 1 0 15.4 0 a7.7 7.7 0 1 0 -15.4 0zM669.67 605.1 a7.7 7.7 0 1 0 15.4 0 a7.7 7.7 0 1 0 -15.4 0zM669.67 682.1 a7.7 7.7 0 1 0 15.4 0 a7.7 7.7 0 1 0 -15.4 0zM602.98 720.6 a7.7 7.7 0 1 0 15.4 0 a7.7 7.7 0 1 0 -15.4 0zM536.3 682.1 a7.7 7.7 0 1 0 15.4 0 a7.7 7.7 0 1 0 -15.4 0zM536.3 605.1 a7.7 7.7 0 1 0 15.4 0 a7.7 7.7 0 1 0 -15.4 0zM602.98 1028.6 a7.7 7.7 0 1 0 15.4 0 a7.7 7.7 0 1 0 -15.4 0zM669.67 1067.1 a7.7 7.7 0 1 0 15.4 0 a7.7 7.7 0 1 0 -15.4 0zM669.67 1144.1 a7.7 7.7 0 1 0 15.4 0 a7.7 7.7 0 1 0 -15.4 0zM602.98 1182.6 a7.7 7.7 0 1 0 15.4 0 a7.7 7.7 0 1 0 -15.4 0zM536.3 1144.1 a7.7 7.7 0 1 0 15.4 0 a7.7 7.7 0 1 0 -15.4 0zM536.3 1067.1 a7.7 7.7 0 1 0 15.4 0 a7.7 7.7 0 1 0 -15.4 0zM669.67 -10.9 a7.7 7.7 0 1 0 15.4 0 a7.7 7.7 0 1 0 -15.4 0zM736.35 27.6 a7.7 7.7 0 1 0 15.4 0 a7.7 7.7 0 1 0 -15.4 0zM736.35 104.6 a7.7 7.7 0 1 0 15.4 0 a7.7 7.7 0 1 0 -15.4 0zM602.98 27.6 a7.7 7.7 0 1 0 15.4 0 a7.7 7.7 0 1 0 -15.4 0zM803.04 143.1 a7.7 7.7 0 1 0 15.4 0 a7.7 7.7 0 1 0 -15.4 0zM803.04 220.1 a7.7 7.7 0 1 0 15.4 0 a7.7 7.7 0 1 0 -15.4 0zM736.35 258.6 a7.7 7.7 0 1 0 15.4 0 a7.7 7.7 0 1 0 -15.4 0zM736.35 335.6 a7.7 7.7 0 1 0 15.4 0 a7.7 7.7 0 1 0 -15.4 0zM803.04 374.1 a7.7 7.7 0 1 0 15.4 0 a7.7 7.7 0 1 0 -15.4 0zM803.04 451.1 a7.7 7.7 0 1 0 15.4 0 a7.7 7.7 0 1 0 -15.4 0zM736.35 489.6 a7.7 7.7 0 1 0 15.4 0 a7.7 7.7 0 1 0 -15.4 0zM736.35 566.6 a7.7 7.7 0 1 0 15.4 0 a7.7 7.7 0 1 0 -15.4 0zM803.04 605.1 a7.7 7.7 0 1 0 15.4 0 a7.7 7.7 0 1 0 -15.4 0zM803.04 682.1 a7.7 7.7 0 1 0 15.4 0 a7.7 7.7 0 1 0 -15.4 0zM736.35 720.6 a7.7 7.7 0 1 0 15.4 0 a7.7 7.7 0 1 0 -15.4 0zM736.35 797.6 a7.7 7.7 0 1 0 15.4 0 a7.7 7.7 0 1 0 -15.4 0zM669.67 836.1 a7.7 7.7 0 1 0 15.4 0 a7.7 7.7 0 1 0 -15.4 0zM602.98 797.6 a7.7 7.7 0 1 0 15.4 0 a7.7 7.7 0 1 0 -15.4 0zM803.04 836.1 a7.7 7.7 0 1 0 15.4 0 a7.7 7.7 0 1 0 -15.4 0zM803.04 913.1 a7.7 7.7 0 1 0 15.4 0 a7.7 7.7 0 1 0 -15.4 0zM736.35 951.6 a7.7 7.7 0 1 0 15.4 0 a7.7 7.7 0 1 0 -15.4 0zM669.67 913.1 a7.7 7.7 0 1 0 15.4 0 a7.7 7.7 0 1 0 -15.4 0zM736.35 1028.6 a7.7 7.7 0 1 0 15.4 0 a7.7 7.7 0 1 0 -15.4 0zM602.98 951.6 a7.7 7.7 0 1 0 15.4 0 a7.7 7.7 0 1 0 -15.4 0zM803.04 1067.1 a7.7 7.7 0 1 0 15.4 0 a7.7 7.7 0 1 0 -15.4 0zM803.04 1144.1 a7.7 7.7 0 1 0 15.4 0 a7.7 7.7 0 1 0 -15.4 0zM736.35 1182.6 a7.7 7.7 0 1 0 15.4 0 a7.7 7.7 0 1 0 -15.4 0zM869.73 104.6 a7.7 7.7 0 1 0 15.4 0 a7.7 7.7 0 1 0 -15.4 0zM936.41 143.1 a7.7 7.7 0 1 0 15.4 0 a7.7 7.7 0 1 0 -15.4 0zM936.41 220.1 a7.7 7.7 0 1 0 15.4 0 a7.7 7.7 0 1 0 -15.4 0zM869.73 258.6 a7.7 7.7 0 1 0 15.4 0 a7.7 7.7 0 1 0 -15.4 0zM869.73 335.6 a7.7 7.7 0 1 0 15.4 0 a7.7 7.7 0 1 0 -15.4 0zM936.41 374.1 a7.7 7.7 0 1 0 15.4 0 a7.7 7.7 0 1 0 -15.4 0zM936.41 451.1 a7.7 7.7 0 1 0 15.4 0 a7.7 7.7 0 1 0 -15.4 0zM869.73 489.6 a7.7 7.7 0 1 0 15.4 0 a7.7 7.7 0 1 0 -15.4 0zM869.73 1028.6 a7.7 7.7 0 1 0 15.4 0 a7.7 7.7 0 1 0 -15.4 0zM936.41 1067.1 a7.7 7.7 0 1 0 15.4 0 a7.7 7.7 0 1 0 -15.4 0zM936.41 1144.1 a7.7 7.7 0 1 0 15.4 0 a7.7 7.7 0 1 0 -15.4 0zM869.73 1182.6 a7.7 7.7 0 1 0 15.4 0 a7.7 7.7 0 1 0 -15.4 0zM1003.1 104.6 a7.7 7.7 0 1 0 15.4 0 a7.7 7.7 0 1 0 -15.4 0zM1069.78 143.1 a7.7 7.7 0 1 0 15.4 0 a7.7 7.7 0 1 0 -15.4 0zM1069.78 220.1 a7.7 7.7 0 1 0 15.4 0 a7.7 7.7 0 1 0 -15.4 0zM1003.1 258.6 a7.7 7.7 0 1 0 15.4 0 a7.7 7.7 0 1 0 -15.4 0zM1003.1 335.6 a7.7 7.7 0 1 0 15.4 0 a7.7 7.7 0 1 0 -15.4 0zM936.41 913.1 a7.7 7.7 0 1 0 15.4 0 a7.7 7.7 0 1 0 -15.4 0zM1003.1 951.6 a7.7 7.7 0 1 0 15.4 0 a7.7 7.7 0 1 0 -15.4 0zM1003.1 1028.6 a7.7 7.7 0 1 0 15.4 0 a7.7 7.7 0 1 0 -15.4 0zM869.73 951.6 a7.7 7.7 0 1 0 15.4 0 a7.7 7.7 0 1 0 -15.4 0zM1069.78 1067.1 a7.7 7.7 0 1 0 15.4 0 a7.7 7.7 0 1 0 -15.4 0zM1069.78 1144.1 a7.7 7.7 0 1 0 15.4 0 a7.7 7.7 0 1 0 -15.4 0zM1003.1 1182.6 a7.7 7.7 0 1 0 15.4 0 a7.7 7.7 0 1 0 -15.4 0zM1136.47 258.6 a7.7 7.7 0 1 0 15.4 0 a7.7 7.7 0 1 0 -15.4 0zM1136.47 335.6 a7.7 7.7 0 1 0 15.4 0 a7.7 7.7 0 1 0 -15.4 0zM1069.78 374.1 a7.7 7.7 0 1 0 15.4 0 a7.7 7.7 0 1 0 -15.4 0zM1069.78 451.1 a7.7 7.7 0 1 0 15.4 0 a7.7 7.7 0 1 0 -15.4 0zM1136.47 489.6 a7.7 7.7 0 1 0 15.4 0 a7.7 7.7 0 1 0 -15.4 0zM1136.47 566.6 a7.7 7.7 0 1 0 15.4 0 a7.7 7.7 0 1 0 -15.4 0zM1069.78 605.1 a7.7 7.7 0 1 0 15.4 0 a7.7 7.7 0 1 0 -15.4 0zM1003.1 566.6 a7.7 7.7 0 1 0 15.4 0 a7.7 7.7 0 1 0 -15.4 0zM1003.1 489.6 a7.7 7.7 0 1 0 15.4 0 a7.7 7.7 0 1 0 -15.4 0zM1203.16 605.1 a7.7 7.7 0 1 0 15.4 0 a7.7 7.7 0 1 0 -15.4 0zM1203.16 682.1 a7.7 7.7 0 1 0 15.4 0 a7.7 7.7 0 1 0 -15.4 0zM1136.47 720.6 a7.7 7.7 0 1 0 15.4 0 a7.7 7.7 0 1 0 -15.4 0zM1069.78 682.1 a7.7 7.7 0 1 0 15.4 0 a7.7 7.7 0 1 0 -15.4 0zM1136.47 797.6 a7.7 7.7 0 1 0 15.4 0 a7.7 7.7 0 1 0 -15.4 0zM1069.78 836.1 a7.7 7.7 0 1 0 15.4 0 a7.7 7.7 0 1 0 -15.4 0zM1003.1 797.6 a7.7 7.7 0 1 0 15.4 0 a7.7 7.7 0 1 0 -15.4 0zM1003.1 720.6 a7.7 7.7 0 1 0 15.4 0 a7.7 7.7 0 1 0 -15.4 0zM1203.16 836.1 a7.7 7.7 0 1 0 15.4 0 a7.7 7.7 0 1 0 -15.4 0zM1203.16 913.1 a7.7 7.7 0 1 0 15.4 0 a7.7 7.7 0 1 0 -15.4 0zM1136.47 951.6 a7.7 7.7 0 1 0 15.4 0 a7.7 7.7 0 1 0 -15.4 0zM1069.78 913.1 a7.7 7.7 0 1 0 15.4 0 a7.7 7.7 0 1 0 -15.4 0zM1203.16 -10.9 a7.7 7.7 0 1 0 15.4 0 a7.7 7.7 0 1 0 -15.4 0zM1269.84 27.6 a7.7 7.7 0 1 0 15.4 0 a7.7 7.7 0 1 0 -15.4 0zM1269.84 104.6 a7.7 7.7 0 1 0 15.4 0 a7.7 7.7 0 1 0 -15.4 0zM1203.16 143.1 a7.7 7.7 0 1 0 15.4 0 a7.7 7.7 0 1 0 -15.4 0zM1136.47 104.6 a7.7 7.7 0 1 0 15.4 0 a7.7 7.7 0 1 0 -15.4 0zM1136.47 27.6 a7.7 7.7 0 1 0 15.4 0 a7.7 7.7 0 1 0 -15.4 0zM1203.16 220.1 a7.7 7.7 0 1 0 15.4 0 a7.7 7.7 0 1 0 -15.4 0zM1269.84 258.6 a7.7 7.7 0 1 0 15.4 0 a7.7 7.7 0 1 0 -15.4 0zM1269.84 335.6 a7.7 7.7 0 1 0 15.4 0 a7.7 7.7 0 1 0 -15.4 0zM1203.16 374.1 a7.7 7.7 0 1 0 15.4 0 a7.7 7.7 0 1 0 -15.4 0zM1269.84 951.6 a7.7 7.7 0 1 0 15.4 0 a7.7 7.7 0 1 0 -15.4 0zM1269.84 1028.6 a7.7 7.7 0 1 0 15.4 0 a7.7 7.7 0 1 0 -15.4 0zM1203.16 1067.1 a7.7 7.7 0 1 0 15.4 0 a7.7 7.7 0 1 0 -15.4 0zM1136.47 1028.6 a7.7 7.7 0 1 0 15.4 0 a7.7 7.7 0 1 0 -15.4 0zM1336.53 1067.1 a7.7 7.7 0 1 0 15.4 0 a7.7 7.7 0 1 0 -15.4 0zM1336.53 1144.1 a7.7 7.7 0 1 0 15.4 0 a7.7 7.7 0 1 0 -15.4 0zM1269.84 1182.6 a7.7 7.7 0 1 0 15.4 0 a7.7 7.7 0 1 0 -15.4 0zM1203.16 1144.1 a7.7 7.7 0 1 0 15.4 0 a7.7 7.7 0 1 0 -15.4 0zM1336.53 -10.9 a7.7 7.7 0 1 0 15.4 0 a7.7 7.7 0 1 0 -15.4 0zM1403.21 27.6 a7.7 7.7 0 1 0 15.4 0 a7.7 7.7 0 1 0 -15.4 0zM1403.21 104.6 a7.7 7.7 0 1 0 15.4 0 a7.7 7.7 0 1 0 -15.4 0zM1336.53 143.1 a7.7 7.7 0 1 0 15.4 0 a7.7 7.7 0 1 0 -15.4 0zM1469.9 143.1 a7.7 7.7 0 1 0 15.4 0 a7.7 7.7 0 1 0 -15.4 0zM1469.9 220.1 a7.7 7.7 0 1 0 15.4 0 a7.7 7.7 0 1 0 -15.4 0zM1403.21 258.6 a7.7 7.7 0 1 0 15.4 0 a7.7 7.7 0 1 0 -15.4 0zM1336.53 220.1 a7.7 7.7 0 1 0 15.4 0 a7.7 7.7 0 1 0 -15.4 0zM1403.21 335.6 a7.7 7.7 0 1 0 15.4 0 a7.7 7.7 0 1 0 -15.4 0zM1336.53 374.1 a7.7 7.7 0 1 0 15.4 0 a7.7 7.7 0 1 0 -15.4 0zM1469.9 374.1 a7.7 7.7 0 1 0 15.4 0 a7.7 7.7 0 1 0 -15.4 0zM1469.9 451.1 a7.7 7.7 0 1 0 15.4 0 a7.7 7.7 0 1 0 -15.4 0zM1403.21 489.6 a7.7 7.7 0 1 0 15.4 0 a7.7 7.7 0 1 0 -15.4 0zM1336.53 451.1 a7.7 7.7 0 1 0 15.4 0 a7.7 7.7 0 1 0 -15.4 0zM1403.21 566.6 a7.7 7.7 0 1 0 15.4 0 a7.7 7.7 0 1 0 -15.4 0zM1469.9 605.1 a7.7 7.7 0 1 0 15.4 0 a7.7 7.7 0 1 0 -15.4 0zM1469.9 682.1 a7.7 7.7 0 1 0 15.4 0 a7.7 7.7 0 1 0 -15.4 0zM1403.21 720.6 a7.7 7.7 0 1 0 15.4 0 a7.7 7.7 0 1 0 -15.4 0zM1336.53 682.1 a7.7 7.7 0 1 0 15.4 0 a7.7 7.7 0 1 0 -15.4 0zM1336.53 605.1 a7.7 7.7 0 1 0 15.4 0 a7.7 7.7 0 1 0 -15.4 0zM1403.21 797.6 a7.7 7.7 0 1 0 15.4 0 a7.7 7.7 0 1 0 -15.4 0zM1469.9 836.1 a7.7 7.7 0 1 0 15.4 0 a7.7 7.7 0 1 0 -15.4 0zM1469.9 913.1 a7.7 7.7 0 1 0 15.4 0 a7.7 7.7 0 1 0 -15.4 0zM1403.21 951.6 a7.7 7.7 0 1 0 15.4 0 a7.7 7.7 0 1 0 -15.4 0zM1336.53 913.1 a7.7 7.7 0 1 0 15.4 0 a7.7 7.7 0 1 0 -15.4 0zM1336.53 836.1 a7.7 7.7 0 1 0 15.4 0 a7.7 7.7 0 1 0 -15.4 0zM1536.58 335.6 a7.7 7.7 0 1 0 15.4 0 a7.7 7.7 0 1 0 -15.4 0zM1603.27 374.1 a7.7 7.7 0 1 0 15.4 0 a7.7 7.7 0 1 0 -15.4 0zM1603.27 451.1 a7.7 7.7 0 1 0 15.4 0 a7.7 7.7 0 1 0 -15.4 0zM1536.58 489.6 a7.7 7.7 0 1 0 15.4 0 a7.7 7.7 0 1 0 -15.4 0zM1536.58 566.6 a7.7 7.7 0 1 0 15.4 0 a7.7 7.7 0 1 0 -15.4 0zM1536.58 951.6 a7.7 7.7 0 1 0 15.4 0 a7.7 7.7 0 1 0 -15.4 0zM1536.58 1028.6 a7.7 7.7 0 1 0 15.4 0 a7.7 7.7 0 1 0 -15.4 0zM1469.9 1067.1 a7.7 7.7 0 1 0 15.4 0 a7.7 7.7 0 1 0 -15.4 0zM1403.21 1028.6 a7.7 7.7 0 1 0 15.4 0 a7.7 7.7 0 1 0 -15.4 0zM1603.27 1067.1 a7.7 7.7 0 1 0 15.4 0 a7.7 7.7 0 1 0 -15.4 0zM1603.27 1144.1 a7.7 7.7 0 1 0 15.4 0 a7.7 7.7 0 1 0 -15.4 0zM1536.58 1182.6 a7.7 7.7 0 1 0 15.4 0 a7.7 7.7 0 1 0 -15.4 0zM1469.9 1144.1 a7.7 7.7 0 1 0 15.4 0 a7.7 7.7 0 1 0 -15.4 0zM1669.96 335.6 a7.7 7.7 0 1 0 15.4 0 a7.7 7.7 0 1 0 -15.4 0zM1736.64 374.1 a7.7 7.7 0 1 0 15.4 0 a7.7 7.7 0 1 0 -15.4 0zM1736.64 451.1 a7.7 7.7 0 1 0 15.4 0 a7.7 7.7 0 1 0 -15.4 0zM1669.96 489.6 a7.7 7.7 0 1 0 15.4 0 a7.7 7.7 0 1 0 -15.4 0zM1669.96 566.6 a7.7 7.7 0 1 0 15.4 0 a7.7 7.7 0 1 0 -15.4 0zM1603.27 605.1 a7.7 7.7 0 1 0 15.4 0 a7.7 7.7 0 1 0 -15.4 0zM1603.27 682.1 a7.7 7.7 0 1 0 15.4 0 a7.7 7.7 0 1 0 -15.4 0zM1669.96 720.6 a7.7 7.7 0 1 0 15.4 0 a7.7 7.7 0 1 0 -15.4 0zM1669.96 797.6 a7.7 7.7 0 1 0 15.4 0 a7.7 7.7 0 1 0 -15.4 0zM1603.27 836.1 a7.7 7.7 0 1 0 15.4 0 a7.7 7.7 0 1 0 -15.4 0zM1536.58 797.6 a7.7 7.7 0 1 0 15.4 0 a7.7 7.7 0 1 0 -15.4 0zM1536.58 720.6 a7.7 7.7 0 1 0 15.4 0 a7.7 7.7 0 1 0 -15.4 0zM1736.64 220.1 a7.7 7.7 0 1 0 15.4 0 a7.7 7.7 0 1 0 -15.4 0zM1803.33 258.6 a7.7 7.7 0 1 0 15.4 0 a7.7 7.7 0 1 0 -15.4 0zM1803.33 335.6 a7.7 7.7 0 1 0 15.4 0 a7.7 7.7 0 1 0 -15.4 0zM1669.96 258.6 a7.7 7.7 0 1 0 15.4 0 a7.7 7.7 0 1 0 -15.4 0zM1870.01 374.1 a7.7 7.7 0 1 0 15.4 0 a7.7 7.7 0 1 0 -15.4 0zM1870.01 451.1 a7.7 7.7 0 1 0 15.4 0 a7.7 7.7 0 1 0 -15.4 0zM1803.33 489.6 a7.7 7.7 0 1 0 15.4 0 a7.7 7.7 0 1 0 -15.4 0zM1803.33 566.6 a7.7 7.7 0 1 0 15.4 0 a7.7 7.7 0 1 0 -15.4 0zM1736.64 605.1 a7.7 7.7 0 1 0 15.4 0 a7.7 7.7 0 1 0 -15.4 0zM1870.01 605.1 a7.7 7.7 0 1 0 15.4 0 a7.7 7.7 0 1 0 -15.4 0zM1870.01 682.1 a7.7 7.7 0 1 0 15.4 0 a7.7 7.7 0 1 0 -15.4 0zM1803.33 720.6 a7.7 7.7 0 1 0 15.4 0 a7.7 7.7 0 1 0 -15.4 0zM1736.64 682.1 a7.7 7.7 0 1 0 15.4 0 a7.7 7.7 0 1 0 -15.4 0zM1803.33 797.6 a7.7 7.7 0 1 0 15.4 0 a7.7 7.7 0 1 0 -15.4 0zM1870.01 836.1 a7.7 7.7 0 1 0 15.4 0 a7.7 7.7 0 1 0 -15.4 0zM1870.01 913.1 a7.7 7.7 0 1 0 15.4 0 a7.7 7.7 0 1 0 -15.4 0zM1803.33 951.6 a7.7 7.7 0 1 0 15.4 0 a7.7 7.7 0 1 0 -15.4 0zM1736.64 913.1 a7.7 7.7 0 1 0 15.4 0 a7.7 7.7 0 1 0 -15.4 0zM1736.64 836.1 a7.7 7.7 0 1 0 15.4 0 a7.7 7.7 0 1 0 -15.4 0zM1936.7 104.6 a7.7 7.7 0 1 0 15.4 0 a7.7 7.7 0 1 0 -15.4 0zM2003.39 143.1 a7.7 7.7 0 1 0 15.4 0 a7.7 7.7 0 1 0 -15.4 0zM2003.39 220.1 a7.7 7.7 0 1 0 15.4 0 a7.7 7.7 0 1 0 -15.4 0zM1936.7 258.6 a7.7 7.7 0 1 0 15.4 0 a7.7 7.7 0 1 0 -15.4 0zM1870.01 220.1 a7.7 7.7 0 1 0 15.4 0 a7.7 7.7 0 1 0 -15.4 0zM1870.01 143.1 a7.7 7.7 0 1 0 15.4 0 a7.7 7.7 0 1 0 -15.4 0zM1936.7 489.6 a7.7 7.7 0 1 0 15.4 0 a7.7 7.7 0 1 0 -15.4 0zM1936.7 566.6 a7.7 7.7 0 1 0 15.4 0 a7.7 7.7 0 1 0 -15.4 0zM2003.39 605.1 a7.7 7.7 0 1 0 15.4 0 a7.7 7.7 0 1 0 -15.4 0zM2003.39 682.1 a7.7 7.7 0 1 0 15.4 0 a7.7 7.7 0 1 0 -15.4 0zM1936.7 720.6 a7.7 7.7 0 1 0 15.4 0 a7.7 7.7 0 1 0 -15.4 0zM1936.7 797.6 a7.7 7.7 0 1 0 15.4 0 a7.7 7.7 0 1 0 -15.4 0zM2003.39 836.1 a7.7 7.7 0 1 0 15.4 0 a7.7 7.7 0 1 0 -15.4 0zM2003.39 913.1 a7.7 7.7 0 1 0 15.4 0 a7.7 7.7 0 1 0 -15.4 0zM1936.7 951.6 a7.7 7.7 0 1 0 15.4 0 a7.7 7.7 0 1 0 -15.4 0zM1936.7 1028.6 a7.7 7.7 0 1 0 15.4 0 a7.7 7.7 0 1 0 -15.4 0zM1870.01 1067.1 a7.7 7.7 0 1 0 15.4 0 a7.7 7.7 0 1 0 -15.4 0zM1803.33 1028.6 a7.7 7.7 0 1 0 15.4 0 a7.7 7.7 0 1 0 -15.4 0z"
      fill="rgba(10, 72, 152, 0.10)"></path>
    <path
      d="M61.96 159.5L116.52 191L116.52 254L61.96 285.5L7.4 254L7.4 191zM61.96 537.5L116.52 569L116.52 632L61.96 663.5L7.4 632L7.4 569zM116.52 1010L171.08 1041.5L171.08 1104.5L116.52 1136L61.96 1104.5L61.96 1041.5zM171.08 -29.5L225.64 2L225.64 65L171.08 96.5L116.52 65L116.52 2zM225.64 443L280.2 474.5L280.2 537.5L225.64 569L171.08 537.5L171.08 474.5zM225.64 632L280.2 663.5L280.2 726.5L225.64 758L171.08 726.5L171.08 663.5zM280.2 159.5L334.77 191L334.77 254L280.2 285.5L225.64 254L225.64 191zM334.77 443L389.33 474.5L389.33 537.5L334.77 569L280.2 537.5L280.2 474.5zM280.2 726.5L334.77 758L334.77 821L280.2 852.5L225.64 821L225.64 758zM334.77 821L389.33 852.5L389.33 915.5L334.77 947L280.2 915.5L280.2 852.5zM334.77 1010L389.33 1041.5L389.33 1104.5L334.77 1136L280.2 1104.5L280.2 1041.5zM443.89 443L498.45 474.5L498.45 537.5L443.89 569L389.33 537.5L389.33 474.5zM389.33 915.5L443.89 947L443.89 1010L389.33 1041.5L334.77 1010L334.77 947zM443.89 1010L498.45 1041.5L498.45 1104.5L443.89 1136L389.33 1104.5L389.33 1041.5zM553.01 632L607.57 663.5L607.57 726.5L553.01 758L498.45 726.5L498.45 663.5zM662.13 65L716.69 96.5L716.69 159.5L662.13 191L607.57 159.5L607.57 96.5zM662.13 254L716.69 285.5L716.69 348.5L662.13 380L607.57 348.5L607.57 285.5zM607.57 537.5L662.13 569L662.13 632L607.57 663.5L553.01 632L553.01 569zM662.13 632L716.69 663.5L716.69 726.5L662.13 758L607.57 726.5L607.57 663.5zM662.13 821L716.69 852.5L716.69 915.5L662.13 947L607.57 915.5L607.57 852.5zM716.69 348.5L771.25 380L771.25 443L716.69 474.5L662.13 443L662.13 380zM771.25 632L825.82 663.5L825.82 726.5L771.25 758L716.69 726.5L716.69 663.5zM716.69 726.5L771.25 758L771.25 821L716.69 852.5L662.13 821L662.13 758zM716.69 915.5L771.25 947L771.25 1010L716.69 1041.5L662.13 1010L662.13 947zM825.82 348.5L880.38 380L880.38 443L825.82 474.5L771.25 443L771.25 380zM825.82 537.5L880.38 569L880.38 632L825.82 663.5L771.25 632L771.25 569zM934.94 -29.5L989.5 2L989.5 65L934.94 96.5L880.38 65L880.38 2zM989.5 65L1044.06 96.5L1044.06 159.5L989.5 191L934.94 159.5L934.94 96.5zM989.5 443L1044.06 474.5L1044.06 537.5L989.5 569L934.94 537.5L934.94 474.5zM989.5 632L1044.06 663.5L1044.06 726.5L989.5 758L934.94 726.5L934.94 663.5zM934.94 915.5L989.5 947L989.5 1010L934.94 1041.5L880.38 1010L880.38 947zM1044.06 -29.5L1098.62 2L1098.62 65L1044.06 96.5L989.5 65L989.5 2zM1098.62 254L1153.18 285.5L1153.18 348.5L1098.62 380L1044.06 348.5L1044.06 285.5zM1044.06 348.5L1098.62 380L1098.62 443L1044.06 474.5L989.5 443L989.5 380zM1098.62 443L1153.18 474.5L1153.18 537.5L1098.62 569L1044.06 537.5L1044.06 474.5zM1044.06 537.5L1098.62 569L1098.62 632L1044.06 663.5L989.5 632L989.5 569zM1098.62 632L1153.18 663.5L1153.18 726.5L1098.62 758L1044.06 726.5L1044.06 663.5zM1207.74 254L1262.31 285.5L1262.31 348.5L1207.74 380L1153.18 348.5L1153.18 285.5zM1153.18 348.5L1207.74 380L1207.74 443L1153.18 474.5L1098.62 443L1098.62 380zM1207.74 443L1262.31 474.5L1262.31 537.5L1207.74 569L1153.18 537.5L1153.18 474.5zM1262.31 348.5L1316.87 380L1316.87 443L1262.31 474.5L1207.74 443L1207.74 380zM1262.31 537.5L1316.87 569L1316.87 632L1262.31 663.5L1207.74 632L1207.74 569zM1316.87 821L1371.43 852.5L1371.43 915.5L1316.87 947L1262.31 915.5L1262.31 852.5zM1262.31 915.5L1316.87 947L1316.87 1010L1262.31 1041.5L1207.74 1010L1207.74 947zM1316.87 1010L1371.43 1041.5L1371.43 1104.5L1316.87 1136L1262.31 1104.5L1262.31 1041.5zM1371.43 -29.5L1425.99 2L1425.99 65L1371.43 96.5L1316.87 65L1316.87 2zM1425.99 821L1480.55 852.5L1480.55 915.5L1425.99 947L1371.43 915.5L1371.43 852.5zM1480.55 348.5L1535.11 380L1535.11 443L1480.55 474.5L1425.99 443L1425.99 380zM1535.11 443L1589.67 474.5L1589.67 537.5L1535.11 569L1480.55 537.5L1480.55 474.5zM1589.67 -29.5L1644.23 2L1644.23 65L1589.67 96.5L1535.11 65L1535.11 2zM1644.23 65L1698.79 96.5L1698.79 159.5L1644.23 191L1589.67 159.5L1589.67 96.5zM1589.67 348.5L1644.23 380L1644.23 443L1589.67 474.5L1535.11 443L1535.11 380zM1644.23 1010L1698.79 1041.5L1698.79 1104.5L1644.23 1136L1589.67 1104.5L1589.67 1041.5zM1698.79 -29.5L1753.36 2L1753.36 65L1698.79 96.5L1644.23 65L1644.23 2zM1698.79 159.5L1753.36 191L1753.36 254L1698.79 285.5L1644.23 254L1644.23 191zM1807.92 -29.5L1862.48 2L1862.48 65L1807.92 96.5L1753.36 65L1753.36 2zM1862.48 65L1917.04 96.5L1917.04 159.5L1862.48 191L1807.92 159.5L1807.92 96.5zM1807.92 159.5L1862.48 191L1862.48 254L1807.92 285.5L1753.36 254L1753.36 191zM1807.92 537.5L1862.48 569L1862.48 632L1807.92 663.5L1753.36 632L1753.36 569zM1862.48 1010L1917.04 1041.5L1917.04 1104.5L1862.48 1136L1807.92 1104.5L1807.92 1041.5zM1917.04 159.5L1971.6 191L1971.6 254L1917.04 285.5L1862.48 254L1862.48 191zM1917.04 348.5L1971.6 380L1971.6 443L1917.04 474.5L1862.48 443L1862.48 380zM1971.6 443L2026.16 474.5L2026.16 537.5L1971.6 569L1917.04 537.5L1917.04 474.5z"
      stroke="rgba10, 72, 152,  0.10)" stroke-width="2"></path>
  </g>
  <defs>
    <mask id="SvgjsMask1062">
      <rect width="1920" height="1080" fill="#ffffff"></rect>
    </mask>
  </defs>
</svg>
